<svg preserveAspectRatio="none" width="100%" height="100%" overflow="visible" style="display: block;" viewBox="0 0 16 16" fill="none" xmlns="http://www.w3.org/2000/svg">
<g id="Sparkles">
<path id="Vector" d="M6.62469 10.333C6.56517 10.1023 6.44492 9.89171 6.27644 9.72323C6.10796 9.55475 5.89741 9.4345 5.66669 9.37498L1.57669 8.32031C1.50691 8.30051 1.4455 8.25848 1.40177 8.20061C1.35804 8.14274 1.33438 8.07218 1.33438 7.99964C1.33438 7.92711 1.35804 7.85655 1.40177 7.79868C1.4455 7.74081 1.50691 7.69878 1.57669 7.67898L5.66669 6.62365C5.89732 6.56418 6.10782 6.44403 6.27629 6.27567C6.44477 6.10731 6.56507 5.8969 6.62469 5.66631L7.67936 1.57631C7.69896 1.50626 7.74095 1.44454 7.7989 1.40057C7.85686 1.35661 7.92761 1.33281 8.00036 1.33281C8.0731 1.33281 8.14385 1.35661 8.20181 1.40057C8.25977 1.44454 8.30175 1.50626 8.32136 1.57631L9.37536 5.66631C9.43488 5.89703 9.55513 6.10758 9.72361 6.27606C9.89209 6.44454 10.1026 6.56479 10.3334 6.62431L14.4234 7.67831C14.4937 7.69771 14.5557 7.73965 14.5999 7.7977C14.6441 7.85574 14.6681 7.92669 14.6681 7.99964C14.6681 8.0726 14.6441 8.14355 14.5999 8.20159C14.5557 8.25964 14.4937 8.30158 14.4234 8.32098L10.3334 9.37498C10.1026 9.4345 9.89209 9.55475 9.72361 9.72323C9.55513 9.89171 9.43488 10.1023 9.37536 10.333L8.32069 14.423C8.30109 14.493 8.2591 14.5548 8.20114 14.5987C8.14319 14.6427 8.07244 14.6665 7.99969 14.6665C7.92695 14.6665 7.8562 14.6427 7.79824 14.5987C7.74028 14.5548 7.6983 14.493 7.67869 14.423L6.62469 10.333Z" fill="var(--fill-0, white)"/>
</g>
</svg>
