<svg preserveAspectRatio="none" width="100%" height="100%" overflow="visible" style="display: block;" viewBox="0 0 11.0005 7.99938" fill="none" xmlns="http://www.w3.org/2000/svg">
<g id="Vector">
<path d="M0.531253 4.17369C0.489582 4.06143 0.489582 3.93795 0.531253 3.82569C0.937103 2.84162 1.62601 2.00021 2.51064 1.40814C3.39527 0.81607 4.43577 0.5 5.50025 0.5C6.56473 0.5 7.60524 0.81607 8.48987 1.40814C9.37449 2.00021 10.0634 2.84162 10.4693 3.82569C10.5109 3.93795 10.5109 4.06143 10.4693 4.17369C10.0634 5.15776 9.37449 5.99917 8.48987 6.59124C7.60524 7.18331 6.56473 7.49938 5.50025 7.49938C4.43577 7.49938 3.39527 7.18331 2.51064 6.59124C1.62601 5.99917 0.937103 5.15776 0.531253 4.17369Z" stroke="var(--stroke-0, white)" stroke-linecap="round" stroke-linejoin="round"/>
<path d="M5.50024 5.49963C6.32867 5.49963 7.00024 4.82806 7.00024 3.99963C7.00024 3.17121 6.32867 2.49963 5.50024 2.49963C4.67182 2.49963 4.00024 3.17121 4.00024 3.99963C4.00024 4.82806 4.67182 5.49963 5.50024 5.49963Z" stroke="var(--stroke-0, white)" stroke-linecap="round" stroke-linejoin="round"/>
</g>
</svg>
